<svg width="27" height="26" viewBox="0 0 27 26" fill="none" xmlns="http://www.w3.org/2000/svg">
<path d="M1 23.7368C0.999894 21.792 1.55517 19.8884 2.59918 18.2546C3.6432 16.6208 5.13159 15.3261 6.88575 14.5259C8.63991 13.7258 10.5853 13.4541 12.4884 13.7436C14.3916 14.0331 16.1717 14.8714 17.615 16.1579M22.25 17.4211V25M26 21.2105H18.5M17.25 7.31579C17.25 10.8039 14.4518 13.6316 11 13.6316C7.54822 13.6316 4.75 10.8039 4.75 7.31579C4.75 3.82768 7.54822 1 11 1C14.4518 1 17.25 3.82768 17.25 7.31579Z" stroke="black" stroke-width="2" stroke-linecap="round" stroke-linejoin="round"/>
</svg>
